<svg width="50" height="51" viewBox="0 0 50 51" fill="none" xmlns="http://www.w3.org/2000/svg">
<path fill-rule="evenodd" clip-rule="evenodd" d="M8.62223 8.9421C10.2498 10.2281 10.8521 10.1365 13.9119 9.93344L42.6107 8.24538C43.221 8.24538 42.7124 7.65217 42.509 7.55264L37.7279 4.18051C37.1157 3.67098 36.4009 3.29317 35.6297 3.07162C34.8586 2.85008 34.0485 2.78975 33.252 2.89456L5.46468 4.88519C4.4515 4.98074 4.24398 5.4784 4.65088 5.87653L8.61003 8.95006L8.62223 8.9421ZM10.3434 15.4873V45.0323C10.3434 46.6248 11.1572 47.214 12.9801 47.1145L44.5231 45.3309C46.3501 45.2313 46.5576 44.1365 46.5576 42.8505V13.5006C46.5576 12.2147 46.049 11.51 44.93 11.6175L11.971 13.5006C10.7503 13.6002 10.3434 14.1974 10.3434 15.4913V15.4873ZM41.4836 17.0798C41.6829 17.9716 41.4836 18.8634 40.568 18.9629L39.0625 19.2536V41.0669C37.7441 41.7597 36.5275 42.1538 35.5143 42.1538C33.8867 42.1538 33.4798 41.6601 32.2591 40.1632L22.3104 24.903V39.6775L25.4557 40.3702C25.4557 40.3702 25.4557 42.1538 22.9207 42.1538L15.922 42.5519C15.7186 42.1538 15.922 41.1665 16.6341 40.9594L18.457 40.4618V20.9377L15.922 20.7386C15.8581 20.4756 15.8536 20.2021 15.9089 19.9373C15.9643 19.6725 16.0781 19.4227 16.2424 19.2054C16.4067 18.9881 16.6176 18.8085 16.8603 18.6793C17.103 18.5501 17.3716 18.4743 17.6473 18.4573L25.1506 17.9636L35.498 33.4428V19.7473L32.8613 19.4526C32.8147 19.2147 32.8214 18.9696 32.8809 18.7344C32.9405 18.4992 33.0514 18.2794 33.2061 18.0902C33.3608 17.901 33.5556 17.7468 33.7771 17.6384C33.9985 17.5299 34.2414 17.4698 34.4889 17.462L41.4917 17.0639L41.4836 17.0798ZM3.14128 2.19784L32.0313 0.115639C35.5998 -0.182956 36.5112 0.0200885 38.7411 1.59269L47.9696 7.96271C49.4914 9.05358 50.0041 9.34819 50.0041 10.5386V45.3428C50.0041 47.5206 49.1903 48.8105 46.342 49.0095L12.7726 51.0002C10.6405 51.0997 9.62728 50.8011 8.51237 49.4077L1.72526 40.7683C0.504557 39.1758 0 37.9814 0 36.6039V5.6695C0 3.8859 0.813802 2.38894 3.14128 2.19784Z" fill="black"/>
</svg>
